<?xml version="1.0" standalone="no"?>
<!DOCTYPE svg PUBLIC "-//W3C//DTD SVG 20010904//EN"
 "http://www.w3.org/TR/2001/REC-SVG-20010904/DTD/svg10.dtd">
<svg version="1.0" xmlns="http://www.w3.org/2000/svg"
 width="152.000000pt" height="152.000000pt" viewBox="0 0 152.000000 152.000000"
 preserveAspectRatio="xMidYMid meet">

<g transform="translate(0.000000,152.000000) scale(0.100000,-0.100000)"
fill="#000000" stroke="none">
<path d="M390 1358 c-11 -12 -20 -31 -20 -43 0 -15 -12 -24 -49 -38 -100 -35
-194 -150 -208 -253 -5 -36 -11 -48 -29 -55 -18 -6 -24 -16 -24 -37 0 -45 15
-52 121 -52 l96 0 7 -42 c15 -94 78 -185 163 -235 34 -20 43 -31 43 -52 0 -45
28 -125 59 -168 23 -31 31 -58 40 -128 7 -49 17 -97 22 -107 14 -27 51 -38
120 -38 75 0 104 24 114 94 l7 46 58 0 58 0 13 -57 c17 -69 37 -83 121 -83 81
0 91 13 106 129 9 77 16 98 39 126 28 34 31 35 90 19 17 -4 31 2 54 26 31 31
32 32 26 105 -4 53 -15 98 -40 157 -23 53 -38 108 -42 153 -14 138 -59 239
-140 314 -113 105 -298 138 -447 81 l-50 -19 -50 34 c-27 19 -67 40 -89 46
-30 9 -39 17 -39 34 0 34 -36 65 -75 65 -22 0 -41 -8 -55 -22z m90 -43 c0 -10
-11 -15 -35 -15 -38 0 -48 22 -18 39 21 11 53 -3 53 -24z m104 -89 c30 -15 67
-41 82 -59 33 -39 71 -121 76 -162 l3 -30 -300 0 -300 0 3 30 c5 49 64 156
104 188 89 72 225 85 332 33z m408 -27 c153 -33 256 -138 292 -301 8 -35 18
-110 21 -168 11 -166 -15 -268 -89 -350 -28 -31 -33 -47 -44 -130 -7 -52 -15
-96 -18 -99 -10 -10 -113 -6 -124 5 -6 6 -14 30 -17 53 -5 37 -3 41 21 51 49
18 19 26 -96 24 l-113 -3 -11 -53 c-6 -30 -14 -59 -18 -66 -10 -17 -71 -25
-113 -15 -34 8 -39 13 -50 53 -6 25 -12 68 -12 96 -1 37 -7 59 -27 85 -38 51
-54 84 -63 136 -8 39 -6 49 7 59 14 10 9 15 -36 38 -28 14 -67 40 -86 57 -41
35 -96 140 -96 181 l0 28 69 0 69 0 37 -50 c34 -47 53 -59 68 -44 3 4 0 16 -8
28 -8 12 -12 31 -9 43 6 21 12 23 137 25 106 2 132 6 140 19 14 22 1 66 -21
71 -13 4 -21 18 -24 45 -5 32 -30 98 -55 144 -5 8 40 26 92 38 57 13 116 13
177 0z m-202 -274 c0 -13 -45 -15 -344 -15 -313 0 -369 4 -349 24 3 3 161 6
350 6 298 0 343 -2 343 -15z m580 -340 c26 -91 12 -165 -29 -165 -32 0 -40 19
-25 57 8 19 18 63 21 98 3 36 9 62 13 60 4 -2 13 -25 20 -50z"/>
<path d="M1107 953 c-11 -11 -8 -58 5 -71 34 -34 82 13 59 57 -11 20 -50 29
-64 14z"/>
<path d="M865 934 c-8 -9 -15 -24 -15 -34 0 -19 25 -50 40 -50 12 0 40 29 40
41 0 18 -19 46 -34 52 -9 4 -22 -1 -31 -9z"/>
<path d="M952 844 c4 -24 52 -48 81 -40 12 3 31 12 42 20 16 11 17 17 8 27
-10 10 -15 9 -27 -1 -16 -12 -54 -10 -90 5 -14 6 -17 4 -14 -11z"/>
</g>
</svg>
